<svg xmlns="http://www.w3.org/2000/svg" viewBox="0 0 20 20"><title>z-cart</title><g id="Camada_2" data-name="Camada 2"><g id="Camada_1-2" data-name="Camada 1"><path d="M10,0A10,10,0,1,0,20,10,10,10,0,0,0,10,0ZM8.73,15.5a1.12,1.12,0,1,1,1.13-1.12A1.12,1.12,0,0,1,8.73,15.5Zm4.45,0a1.12,1.12,0,1,1,1.12-1.12A1.12,1.12,0,0,1,13.18,15.5ZM16.23,7,15,12.06a.65.65,0,0,1-.62.48H7.87a.63.63,0,0,1-.61-.48L5.68,5.78H4.39a.64.64,0,0,1,0-1.28H6.16A.64.64,0,0,1,6.78,5l.29,1.23h8.54a.77.77,0,0,1,.51.24A.62.62,0,0,1,16.23,7Z" fill="#8eb545"/></g></g></svg>