<svg xmlns="http://www.w3.org/2000/svg" viewBox="0 0 824.77 287"><title>z-logo</title><g id="Camada_2" data-name="Camada 2"><g id="Camada_1-2" data-name="Camada 1"><rect x="113.66" y="174.98" width="15.98" height="15.98" rx="3" ry="3" fill="#9ab44f"/><path d="M129.5,126.33h.14v-.09a64.76,64.76,0,1,0-67.9,64.68v0H63.1c.55,0,1.09,0,1.63,0v0h.15a3.35,3.35,0,0,0,3.35-3.36v-9.27A3.35,3.35,0,0,0,64.88,175h-1a48.79,48.79,0,0,1-45-32.82h107.5a3.35,3.35,0,0,0,3.35-3.35v-9.27a3.39,3.39,0,0,0-.06-.64c0-.33.06-.67.06-1A8.76,8.76,0,0,0,129.5,126.33Zm-113.38-.15a48.76,48.76,0,0,1,97.51,0Z" fill="#9ab44f"/><path d="M291.12,125.38A64.74,64.74,0,0,0,177.68,83.27V64.71a3.35,3.35,0,0,0-3.35-3.35h-9.28a3.35,3.35,0,0,0-3.35,3.35v57.85c-.06,1.12-.09,2.25-.09,3.38,0,.1,0,.2,0,.31h.08v61.34a3.35,3.35,0,0,0,3.35,3.35h9.28a3.35,3.35,0,0,0,3.35-3.35V123.43a48.76,48.76,0,0,1,97.45,2.51c0,.1,0,.2,0,.31h.15v61.34a3.35,3.35,0,0,0,3.35,3.35h9.28a3.35,3.35,0,0,0,3.35-3.35V126.24A3,3,0,0,0,291.12,125.38Z" fill="#0a090d"/><path d="M307.24,126.74a64.74,64.74,0,0,0,113.44,42.11v18.56a3.35,3.35,0,0,0,3.35,3.35h9.28a3.35,3.35,0,0,0,3.35-3.35V129.55c.06-1.11.09-2.24.09-3.37,0-.1,0-.2,0-.31h-.08V64.53a3.35,3.35,0,0,0-3.35-3.35H424a3.35,3.35,0,0,0-3.35,3.35v64.16a48.76,48.76,0,0,1-97.45-2.51c0-.1,0-.2,0-.31h-.15V64.53a3.35,3.35,0,0,0-3.35-3.35h-9.28a3.35,3.35,0,0,0-3.35,3.35v61.35A3,3,0,0,0,307.24,126.74Z" fill="#0a090d"/><path d="M582.1,119.93h0v-6.43a3.35,3.35,0,0,0-3.35-3.36h-9.28a3.35,3.35,0,0,0-3.35,3.36v9.27s0,.1,0,.15v2.94A48.77,48.77,0,0,1,520,174.49c-.53,0-1.06,0-1.59,0l-1,0a48.75,48.75,0,0,1-48.66-48.75v-.31h-.12v-2.62a3.56,3.56,0,0,0,.05-.47V45.2h78.11a3.35,3.35,0,0,0,3.35-3.36V32.57a3.35,3.35,0,0,0-3.35-3.35H468.73V3.35A3.35,3.35,0,0,0,465.38,0H456.1a3.35,3.35,0,0,0-3.35,3.35V29.22H424a3.35,3.35,0,0,0-3.36,3.35v9.27A3.35,3.35,0,0,0,424,45.2h28.79V67.29a3.17,3.17,0,0,0-.07.69V125.5h-.06c0,.1,0,.2,0,.31,0,1.13,0,2.25.09,3.37l.22.55a64.45,64.45,0,0,0,15.6,38.35l.16.4a64.59,64.59,0,0,0,45.5,22l1.25,0c.65,0,1.29,0,1.94,0h.18c.64,0,1.26,0,1.89,0a64.74,64.74,0,0,0,62.68-64.15C582.16,126.21,582.08,120.1,582.1,119.93Z" fill="#0a090d"/><path d="M727.88,126.15c0-.48,0-.75,0-.77a64.76,64.76,0,0,0-64.69-64.19h0a64.76,64.76,0,0,0-64.75,64.2,3.43,3.43,0,0,0-.12.86v61.35a3.35,3.35,0,0,0,3.35,3.35h9.28a3.35,3.35,0,0,0,3.35-3.35V126.25h.14v-.31a48.74,48.74,0,0,1,48.69-48.75h0A48.75,48.75,0,0,1,711.87,126v.2h0v12.74a3.35,3.35,0,0,0,3.35,3.36h9.28a3.35,3.35,0,0,0,3.35-3.36V126.15Z" fill="#0a090d"/><rect x="743.86" y="29.23" width="15.98" height="15.98" rx="3" ry="3" fill="#0a090d"/><path d="M821.41,174.94H808.77a48.75,48.75,0,0,1-48.65-48.75c0-.1,0-.2,0-.31H760V64.53a3.35,3.35,0,0,0-3.35-3.35h-9.28A3.35,3.35,0,0,0,744,64.53v61.35a3,3,0,0,0,.13.86,64.75,64.75,0,0,0,64.64,64.2h12.64a3.37,3.37,0,0,0,3.36-3.36V178.3A3.36,3.36,0,0,0,821.41,174.94Z" fill="#0a090d"/><path d="M291.16,207.06C246.48,238.82,187.89,255,145.58,255h0C103.26,255,44.68,238.82,0,207.06,24.42,249.51,65.38,285.11,145.59,287h0C225.78,285.1,266.74,249.5,291.16,207.06Z" fill="#af532d"/></g></g></svg>