<svg xmlns="http://www.w3.org/2000/svg" viewBox="0 0 20 20"><title>z-phone</title><g id="Camada_2" data-name="Camada 2"><g id="Camada_1-2" data-name="Camada 1"><path d="M18.42,13.36h0l-4.55-2.19a.91.91,0,0,0-1.06.19l-1.42,1.46h0A7.48,7.48,0,0,1,7.19,8.65L8.66,7.19a.92.92,0,0,0,.17-1L6.64,1.59A2.3,2.3,0,0,0,3.57.53,2.26,2.26,0,0,0,3,1l-.85.84A7.17,7.17,0,0,0,.45,9.39,17.3,17.3,0,0,0,10.6,19.54a7.17,7.17,0,0,0,7.59-1.64l.86-.85a2.31,2.31,0,0,0,0-3.25A2.16,2.16,0,0,0,18.42,13.36Zm-.6,2.27a.61.61,0,0,1-.07.1v0l-.86.86a5.35,5.35,0,0,1-5.65,1.22A15.5,15.5,0,0,1,2.17,8.76,5.35,5.35,0,0,1,3.4,3.11l.86-.86a.45.45,0,0,1,.65,0A.44.44,0,0,1,5,2.38l1.92,4L5.83,7.43a1.67,1.67,0,0,0-.36,1.8,9.3,9.3,0,0,0,5.21,5.28l.11,0a1.7,1.7,0,0,0,1.87-.41l1-1.05,4,1.91A.47.47,0,0,1,17.82,15.63Zm-6.42-10a3,3,0,0,1,3,3,.92.92,0,1,0,1.83,0A4.84,4.84,0,0,0,11.4,3.76a.92.92,0,1,0,0,1.83ZM11.79,0a.92.92,0,1,0,0,1.83,6.38,6.38,0,0,1,6.38,6.38.92.92,0,1,0,1.83,0A8.22,8.22,0,0,0,11.79,0Z"/></g></g></svg>