<svg xmlns="http://www.w3.org/2000/svg" viewBox="0 0 20 20"><title>z-user</title><g id="Camada_2" data-name="Camada 2"><g id="Camada_1-2" data-name="Camada 1"><path d="M4.42,17.14v-.55a5.58,5.58,0,0,1,11.16,0v.55a9.11,9.11,0,0,1-11.16,0Zm2.9-9.7A2.68,2.68,0,1,1,10,10.12,2.68,2.68,0,0,1,7.32,7.44Z" fill="#d47327"/><path d="M10,0A10,10,0,1,0,20,10,10,10,0,0,0,10,0ZM4.44,17.22v-.55a5.56,5.56,0,0,1,11.12,0v.55a9.12,9.12,0,0,1-11.12,0ZM7.33,7.56A2.67,2.67,0,1,1,10,10.22,2.67,2.67,0,0,1,7.33,7.56Zm9.11,8.88A6.48,6.48,0,0,0,12,10.52a3.52,3.52,0,0,0,1.61-3,3.56,3.56,0,0,0-7.12,0,3.52,3.52,0,0,0,1.61,3,6.47,6.47,0,0,0-4.49,5.92A9.11,9.11,0,1,1,19.11,10,9,9,0,0,1,16.44,16.44Z"/></g></g></svg>