<svg xmlns="http://www.w3.org/2000/svg" viewBox="0 0 20 20"><title>z-whatsapp</title><g id="Camada_2" data-name="Camada 2"><g id="Camada_1-2" data-name="Camada 1"><path d="M20,9.74A9.82,9.82,0,0,1,5.44,18.27L0,20l1.77-5.23a9.68,9.68,0,0,1-1.41-5A9.82,9.82,0,0,1,20,9.74M10.18,1.55A8.23,8.23,0,0,0,1.93,9.74,8.12,8.12,0,0,0,3.5,14.55l-1,3,3.17-1a8.27,8.27,0,0,0,12.8-6.84,8.24,8.24,0,0,0-8.26-8.19m5,10.44c-.06-.1-.22-.16-.46-.28S13.25,11,13,10.93s-.38-.12-.54.12-.62.78-.76.94-.28.18-.52.06a6.76,6.76,0,0,1-1.94-1.19A7.28,7.28,0,0,1,7.93,9.21c-.14-.24,0-.37.11-.49s.24-.28.36-.42a1.63,1.63,0,0,0,.24-.4.42.42,0,0,0,0-.41c-.06-.12-.54-1.3-.74-1.78s-.4-.39-.54-.39l-.46,0a.9.9,0,0,0-.65.29,2.69,2.69,0,0,0-.84,2,4.56,4.56,0,0,0,1,2.47,9.9,9.9,0,0,0,4.11,3.6c2.44,1,2.44.64,2.88.6A2.42,2.42,0,0,0,15,13.12,2,2,0,0,0,15.14,12"/></g></g></svg>