<svg class="svg-sprites" id="skin-sprite" xmlns="http://www.w3.org/2000/svg" xmlns:xlink="http://www.w3.org/1999/xlink">
    <symbol viewBox="0 0 20 20" id="z-cart" xmlns="http://www.w3.org/2000/svg"><g data-name="Camada 2"><path d="M10 0a10 10 0 1010 10A10 10 0 0010 0zM8.73 15.5a1.12 1.12 0 111.13-1.12 1.12 1.12 0 01-1.13 1.12zm4.45 0a1.12 1.12 0 111.12-1.12 1.12 1.12 0 01-1.12 1.12zM16.23 7L15 12.06a.65.65 0 01-.62.48H7.87a.63.63 0 01-.61-.48L5.68 5.78H4.39a.64.64 0 010-1.28h1.77a.64.64 0 01.62.5l.29 1.23h8.54a.77.77 0 01.51.24.62.62 0 01.11.53z" fill="#8eb545" data-name="Camada 1"/></g></symbol>
    <symbol viewBox="0 0 20 12" id="z-down" xmlns="http://www.w3.org/2000/svg"><g data-name="Camada 2"><path d="M16.74.56L10 7.36 3.26.56a1.9 1.9 0 00-2.7 0 1.93 1.93 0 000 2.72l8.09 8.16a1.9 1.9 0 002.7 0l8.09-8.16a1.93 1.93 0 000-2.72 1.9 1.9 0 00-2.7 0z" data-name="Camada 1"/></g></symbol>
    <symbol viewBox="0 0 824.77 287" id="z-logo" xmlns="http://www.w3.org/2000/svg"><g data-name="Camada 2"><g data-name="Camada 1"><rect x="113.66" y="174.98" width="15.98" height="15.98" rx="3" ry="3" fill="#9ab44f"/><path d="M129.5 126.33h.14v-.09a64.76 64.76 0 10-67.9 64.68h3.14a3.35 3.35 0 003.35-3.36v-9.27a3.35 3.35 0 00-3.35-3.29h-1a48.79 48.79 0 01-45-32.82h107.5a3.35 3.35 0 003.35-3.35v-9.27a3.39 3.39 0 00-.06-.64c0-.33.06-.67.06-1a8.76 8.76 0 00-.23-1.59zm-113.38-.15a48.76 48.76 0 0197.51 0z" fill="#9ab44f"/><path d="M291.12 125.38a64.74 64.74 0 00-113.44-42.11V64.71a3.35 3.35 0 00-3.35-3.35h-9.28a3.35 3.35 0 00-3.35 3.35v57.85c-.06 1.12-.09 2.25-.09 3.38v.31h.08v61.34a3.35 3.35 0 003.35 3.35h9.28a3.35 3.35 0 003.35-3.35v-64.16a48.76 48.76 0 0197.45 2.51v.31h.15v61.34a3.35 3.35 0 003.35 3.35h9.28a3.35 3.35 0 003.35-3.35v-61.35a3 3 0 00-.13-.86zM307.24 126.74a64.74 64.74 0 00113.44 42.11v18.56a3.35 3.35 0 003.35 3.35h9.28a3.35 3.35 0 003.35-3.35v-57.86c.06-1.11.09-2.24.09-3.37v-.31h-.08V64.53a3.35 3.35 0 00-3.35-3.35H424a3.35 3.35 0 00-3.35 3.35v64.16a48.76 48.76 0 01-97.45-2.51v-.31h-.15V64.53a3.35 3.35 0 00-3.35-3.35h-9.28a3.35 3.35 0 00-3.35 3.35v61.35a3 3 0 00.17.86z" fill="#0a090d"/><path d="M582.1 119.93v-6.43a3.35 3.35 0 00-3.35-3.36h-9.28a3.35 3.35 0 00-3.35 3.36v12.36A48.77 48.77 0 01520 174.49h-2.59a48.75 48.75 0 01-48.66-48.75v-.31h-.12v-2.62a3.56 3.56 0 00.05-.47V45.2h78.11a3.35 3.35 0 003.35-3.36v-9.27a3.35 3.35 0 00-3.35-3.35h-78.06V3.35A3.35 3.35 0 00465.38 0h-9.28a3.35 3.35 0 00-3.35 3.35v25.87H424a3.35 3.35 0 00-3.36 3.35v9.27A3.35 3.35 0 00424 45.2h28.79v22.09a3.17 3.17 0 00-.07.69v57.52h-.06v.31c0 1.13 0 2.25.09 3.37l.22.55a64.45 64.45 0 0015.6 38.35l.16.4a64.59 64.59 0 0045.5 22h5.26a64.74 64.74 0 0062.68-64.15c-.01-.12-.09-6.23-.07-6.4zM727.88 126.15v-.77a64.76 64.76 0 00-64.69-64.19 64.76 64.76 0 00-64.75 64.2 3.43 3.43 0 00-.12.86v61.35a3.35 3.35 0 003.35 3.35h9.28a3.35 3.35 0 003.35-3.35v-61.35h.14v-.31a48.74 48.74 0 0148.69-48.75A48.75 48.75 0 01711.87 126v12.94a3.35 3.35 0 003.35 3.36h9.28a3.35 3.35 0 003.35-3.36v-12.79z" fill="#0a090d"/><rect x="743.86" y="29.23" width="15.98" height="15.98" rx="3" ry="3" fill="#0a090d"/><path d="M821.41 174.94h-12.64a48.75 48.75 0 01-48.65-48.75v-.31H760V64.53a3.35 3.35 0 00-3.35-3.35h-9.28a3.35 3.35 0 00-3.37 3.35v61.35a3 3 0 00.13.86 64.75 64.75 0 0064.64 64.2h12.64a3.37 3.37 0 003.36-3.36v-9.28a3.36 3.36 0 00-3.36-3.36z" fill="#0a090d"/><path d="M291.16 207.06C246.48 238.82 187.89 255 145.58 255 103.26 255 44.68 238.82 0 207.06c24.42 42.45 65.38 78.05 145.59 79.94 80.19-1.9 121.15-37.5 145.57-79.94z" fill="#af532d"/></g></g></symbol>
    <symbol viewBox="0 0 12.38 20" id="z-next" xmlns="http://www.w3.org/2000/svg"><g data-name="Camada 2"><path d="M.58 3.26l7 6.74-7 6.74a1.87 1.87 0 000 2.7 2 2 0 002.81 0l8.41-8.09a1.87 1.87 0 000-2.7L3.39.56a2 2 0 00-2.81 0 1.87 1.87 0 000 2.7z" data-name="Camada 1"/></g></symbol>
    <symbol viewBox="0 0 20 20" id="z-phone" xmlns="http://www.w3.org/2000/svg"><g data-name="Camada 2"><path d="M18.42 13.36l-4.55-2.19a.91.91 0 00-1.06.19l-1.42 1.46a7.48 7.48 0 01-4.2-4.17l1.47-1.46a.92.92 0 00.17-1l-2.19-4.6A2.3 2.3 0 003.57.53 2.26 2.26 0 003 1l-.85.84a7.17 7.17 0 00-1.7 7.55A17.3 17.3 0 0010.6 19.54a7.17 7.17 0 007.59-1.64l.86-.85a2.31 2.31 0 000-3.25 2.16 2.16 0 00-.63-.44zm-.6 2.27a.61.61 0 01-.07.1l-.86.86a5.35 5.35 0 01-5.65 1.22 15.5 15.5 0 01-9.07-9.05A5.35 5.35 0 013.4 3.11l.86-.86a.45.45 0 01.65 0 .44.44 0 01.09.13l1.92 4-1.09 1.05a1.67 1.67 0 00-.36 1.8 9.3 9.3 0 005.21 5.28h.11a1.7 1.7 0 001.87-.41l1-1.05 4 1.91a.47.47 0 01.16.67zm-6.42-10a3 3 0 013 3 .92.92 0 101.83 0 4.84 4.84 0 00-4.83-4.87.92.92 0 100 1.83zM11.79 0a.92.92 0 100 1.83 6.38 6.38 0 016.38 6.38.92.92 0 101.83 0A8.22 8.22 0 0011.79 0z" data-name="Camada 1"/></g></symbol>
    <symbol viewBox="0 0 12.38 20" id="z-prev" xmlns="http://www.w3.org/2000/svg"><g data-name="Camada 2"><path d="M11.8 16.74L4.79 10l7-6.74a1.87 1.87 0 000-2.7A2 2 0 009 .56L.58 8.65a1.87 1.87 0 000 2.7L9 19.44a2 2 0 002.81 0 1.87 1.87 0 00-.01-2.7z" data-name="Camada 1"/></g></symbol>
    <symbol viewBox="0 0 20 20" id="z-search" xmlns="http://www.w3.org/2000/svg"><g data-name="Camada 2"><path d="M8.55 2.85a5.7 5.7 0 014.65 9l-.56.8-.79.56a5.67 5.67 0 01-3.3 1.06 5.73 5.73 0 010-11.45m0-2.82a8.58 8.58 0 000 17.15 8.4 8.4 0 004.94-1.6l4 4a1.41 1.41 0 001 .43 1.33 1.33 0 001-.43 1.37 1.37 0 000-2l-4-4a8.69 8.69 0 001.59-5A8.59 8.59 0 008.55 0z" data-name="Camada 1"/></g></symbol>
    <symbol viewBox="0 0 20 20" id="z-user" xmlns="http://www.w3.org/2000/svg"><g data-name="Camada 2"><g data-name="Camada 1"><path d="M4.42 17.14v-.55a5.58 5.58 0 0111.16 0v.55a9.11 9.11 0 01-11.16 0zm2.9-9.7A2.68 2.68 0 1110 10.12a2.68 2.68 0 01-2.68-2.68z" fill="#d47327"/><path d="M10 0a10 10 0 1010 10A10 10 0 0010 0zM4.44 17.22v-.55a5.56 5.56 0 0111.12 0v.55a9.12 9.12 0 01-11.12 0zm2.89-9.66A2.67 2.67 0 1110 10.22a2.67 2.67 0 01-2.67-2.66zm9.11 8.88A6.48 6.48 0 0012 10.52a3.52 3.52 0 001.61-3 3.56 3.56 0 00-7.12 0 3.52 3.52 0 001.61 3 6.47 6.47 0 00-4.49 5.92A9.11 9.11 0 1119.11 10a9 9 0 01-2.67 6.44z"/></g></g></symbol>
    <symbol viewBox="0 0 20 20" id="z-whatsapp" xmlns="http://www.w3.org/2000/svg"><g data-name="Camada 2"><path d="M20 9.74a9.82 9.82 0 01-14.56 8.53L0 20l1.77-5.23a9.68 9.68 0 01-1.41-5A9.82 9.82 0 0120 9.74m-9.82-8.19a8.23 8.23 0 00-8.25 8.19 8.12 8.12 0 001.57 4.81l-1 3 3.17-1a8.27 8.27 0 0012.8-6.84 8.24 8.24 0 00-8.26-8.19m5 10.44c-.06-.1-.22-.16-.46-.28s-1.5-.68-1.75-.75-.38-.12-.54.12-.62.78-.76.94-.28.18-.52.06a6.76 6.76 0 01-1.94-1.19 7.28 7.28 0 01-1.31-1.65c-.14-.24 0-.37.11-.49s.24-.28.36-.42a1.63 1.63 0 00.24-.4.42.42 0 000-.41c-.06-.12-.54-1.3-.74-1.78s-.4-.39-.54-.39H6.9a.9.9 0 00-.65.29 2.69 2.69 0 00-.84 2 4.56 4.56 0 001 2.47 9.9 9.9 0 004.11 3.6c2.44 1 2.44.64 2.88.6a2.42 2.42 0 001.6-1.16 2 2 0 00.14-1.12" data-name="Camada 1"/></g></symbol>
</svg>